<svg width="44" height="44" viewBox="0 0 44 44" fill="none" xmlns="http://www.w3.org/2000/svg">
<rect width="44" height="44" rx="6" fill="#5F57FF"/>
<path d="M19.5 30.3334H24.5C25.8833 30.3334 27 29.2167 27 27.8334V16.1667C27 14.7834 25.8833 13.6667 24.5 13.6667H19.5C18.1167 13.6667 17 14.7834 17 16.1667V27.8334C17 29.2167 18.1167 30.3334 19.5 30.3334Z" fill="white"/>
<path d="M15.75 16.9417V27.0583C15.75 27.325 15.5083 27.5167 15.25 27.4667C14.0167 27.2417 13.6667 26.525 13.6667 24.775V19.225C13.6667 17.475 14.0167 16.7583 15.25 16.5333C15.5083 16.4833 15.75 16.675 15.75 16.9417Z" fill="white"/>
<path d="M30.3333 19.225V24.775C30.3333 26.525 29.9833 27.2417 28.75 27.4667C28.4917 27.5167 28.25 27.3167 28.25 27.0583V16.9417C28.25 16.675 28.4917 16.4833 28.75 16.5333C29.9833 16.7583 30.3333 17.475 30.3333 19.225Z" fill="white"/>
</svg>
