<svg width="44" height="44" viewBox="0 0 44 44" fill="none" xmlns="http://www.w3.org/2000/svg">
<rect width="44" height="44" rx="6" fill="#33CFFF"/>
<path d="M26.6083 18.4748C26.55 18.4665 26.4916 18.4665 26.4333 18.4748C25.1416 18.4332 24.1166 17.3748 24.1166 16.0748C24.1166 14.7498 25.1916 13.6665 26.525 13.6665C27.85 13.6665 28.9333 14.7415 28.9333 16.0748C28.925 17.3748 27.9 18.4332 26.6083 18.4748Z" fill="white"/>
<path d="M29.325 24.2498C28.3916 24.8748 27.0833 25.1082 25.875 24.9498C26.1916 24.2665 26.3583 23.5082 26.3666 22.7082C26.3666 21.8748 26.1833 21.0832 25.8333 20.3915C27.0666 20.2248 28.375 20.4582 29.3166 21.0832C30.6333 21.9498 30.6333 23.3748 29.325 24.2498Z" fill="white"/>
<path d="M17.3667 18.4748C17.425 18.4665 17.4833 18.4665 17.5417 18.4748C18.8333 18.4332 19.8583 17.3748 19.8583 16.0748C19.8583 14.7415 18.7833 13.6665 17.45 13.6665C16.125 13.6665 15.05 14.7415 15.05 16.0748C15.05 17.3748 16.075 18.4332 17.3667 18.4748Z" fill="white"/>
<path d="M17.4583 22.7083C17.4583 23.5167 17.6333 24.2833 17.95 24.975C16.775 25.1 15.55 24.85 14.65 24.2583C13.3333 23.3833 13.3333 21.9583 14.65 21.0833C15.5416 20.4833 16.8 20.2417 17.9833 20.375C17.6416 21.075 17.4583 21.8667 17.4583 22.7083Z" fill="white"/>
<path d="M22.1 25.225C22.0333 25.2167 21.9583 25.2167 21.8833 25.225C20.35 25.175 19.125 23.9167 19.125 22.3667C19.1333 20.7833 20.4083 19.5 22 19.5C23.5833 19.5 24.8667 20.7833 24.8667 22.3667C24.8583 23.9167 23.6417 25.175 22.1 25.225Z" fill="white"/>
<path d="M19.3917 26.9502C18.1334 27.7919 18.1334 29.1752 19.3917 30.0085C20.825 30.9669 23.175 30.9669 24.6084 30.0085C25.8667 29.1669 25.8667 27.7835 24.6084 26.9502C23.1834 25.9919 20.8334 25.9919 19.3917 26.9502Z" fill="white"/>
</svg>
