<svg width="46" height="47" viewBox="0 0 46 47" fill="none" xmlns="http://www.w3.org/2000/svg">
<circle cx="23" cy="23.6484" r="23" fill="#E5E4FB"/>
<path d="M22.3237 28.374C24.74 28.374 26.6987 26.4153 26.6987 23.999C26.6987 21.5828 24.74 19.624 22.3237 19.624C19.9075 19.624 17.9487 21.5828 17.9487 23.999C17.9487 26.4153 19.9075 28.374 22.3237 28.374Z" stroke="#5F57FF" stroke-width="2" stroke-linecap="round" stroke-linejoin="round"/>
<path d="M28.1294 32.7493C26.18 34.043 23.8544 34.6487 21.5217 34.4702C19.1889 34.2917 16.9825 33.3394 15.2527 31.7642C13.5228 30.189 12.3685 28.0812 11.973 25.7753C11.5774 23.4694 11.9632 21.0974 13.0693 19.0358C14.1753 16.9741 15.9381 15.3409 18.078 14.3951C20.218 13.4494 22.6124 13.2455 24.8815 13.8156C27.1506 14.3857 29.1643 15.6972 30.6031 17.5421C32.0419 19.3869 32.8234 21.6594 32.8236 23.999C32.8236 26.4153 31.9486 28.374 29.7611 28.374C27.5736 28.374 26.6986 26.4153 26.6986 23.999V19.624" stroke="#5F57FF" stroke-width="2" stroke-linecap="round" stroke-linejoin="round"/>
</svg>
