<svg width="20" height="20" viewBox="0 0 20 20" fill="none" xmlns="http://www.w3.org/2000/svg">
<path d="M6.00189 15.7716L3.6463 17.8865C3.561 17.9631 3.457 18.0121 3.34653 18.0277C3.23605 18.0433 3.1237 18.0249 3.02268 17.9747C2.92167 17.9244 2.83618 17.8444 2.77629 17.744C2.71639 17.6437 2.68457 17.5271 2.68457 17.4081V5C2.68457 4.83424 2.74622 4.67527 2.85597 4.55806C2.96571 4.44085 3.11455 4.375 3.26975 4.375H16.1437C16.2989 4.375 16.4478 4.44085 16.5575 4.55806C16.6673 4.67527 16.7289 4.83424 16.7289 5V15C16.7289 15.1658 16.6673 15.3247 16.5575 15.4419C16.4478 15.5592 16.2989 15.625 16.1437 15.625H6.37844C6.24068 15.625 6.10734 15.6769 6.00189 15.7716Z" stroke="#1570EF" stroke-linecap="round" stroke-linejoin="round"/>
<path d="M9.70687 10.9375C10.1917 10.9375 10.5846 10.5178 10.5846 10C10.5846 9.48223 10.1917 9.0625 9.70687 9.0625C9.22209 9.0625 8.8291 9.48223 8.8291 10C8.8291 10.5178 9.22209 10.9375 9.70687 10.9375Z" fill="#1570EF"/>
<path d="M6.19564 10.9375C6.68042 10.9375 7.07342 10.5178 7.07342 10C7.07342 9.48223 6.68042 9.0625 6.19564 9.0625C5.71086 9.0625 5.31787 9.48223 5.31787 10C5.31787 10.5178 5.71086 10.9375 6.19564 10.9375Z" fill="#1570EF"/>
<path d="M13.2176 10.9375C13.7024 10.9375 14.0954 10.5178 14.0954 10C14.0954 9.48223 13.7024 9.0625 13.2176 9.0625C12.7328 9.0625 12.3398 9.48223 12.3398 10C12.3398 10.5178 12.7328 10.9375 13.2176 10.9375Z" fill="#1570EF"/>
</svg>
