<svg width="20" height="20" viewBox="0 0 20 20" fill="none" xmlns="http://www.w3.org/2000/svg">
<path d="M7.50002 16.249H5.62502C5.00458 16.2484 4.39136 16.1159 3.82607 15.8601C3.26078 15.6044 2.75635 15.2314 2.34625 14.7658C1.93615 14.3002 1.62977 13.7527 1.44745 13.1597C1.26512 12.5667 1.21101 11.9416 1.28873 11.3261C1.36644 10.7105 1.57418 10.1185 1.89818 9.58939C2.22217 9.06027 2.655 8.6061 3.16794 8.25705C3.68089 7.908 4.2622 7.67204 4.87331 7.56483C5.48442 7.45762 6.11134 7.48162 6.71246 7.63523" stroke="#475467" stroke-width="1.4" stroke-linecap="round" stroke-linejoin="round"/>
<path d="M6.25 9.99841C6.2501 9.00813 6.48551 8.03204 6.93683 7.15058C7.38815 6.26912 8.04247 5.50752 8.84587 4.92854C9.64927 4.34956 10.5787 3.96977 11.5577 3.82047C12.5367 3.67116 13.5371 3.75662 14.4766 4.0698C15.416 4.38298 16.2676 4.91491 16.9612 5.62177C17.6547 6.32862 18.1704 7.19016 18.4657 8.1354C18.761 9.08064 18.8274 10.0825 18.6596 11.0585C18.4917 12.0344 18.0943 12.9565 17.5002 13.7488" stroke="#475467" stroke-width="1.4" stroke-linecap="round" stroke-linejoin="round"/>
<path d="M9.22339 12.6507L11.875 9.99902L14.5267 12.6507" stroke="#475467" stroke-width="1.4" stroke-linecap="round" stroke-linejoin="round"/>
<path d="M11.875 16.249V9.99902" stroke="#475467" stroke-width="1.4" stroke-linecap="round" stroke-linejoin="round"/>
</svg>
