<svg width="44" height="44" viewBox="0 0 44 44" fill="none" xmlns="http://www.w3.org/2000/svg">
<rect width="44" height="44" rx="6" fill="#40C4AA"/>
<path d="M19.1304 23.2385L17.9823 24.3866C17.5751 24.0912 17.0035 24.1179 16.6329 24.4861C16.2169 24.8909 16.2169 25.5584 16.6326 25.9633L17.251 26.5818C17.4586 26.8005 17.7401 26.8915 17.9917 26.8915C18.2546 26.8915 18.5207 26.7934 18.728 26.5861L20.603 24.7111C21.0074 24.3067 21.0074 23.6429 20.603 23.2385L20.603 23.2385L20.5979 23.2336C20.1892 22.8385 19.5375 22.8315 19.1304 23.2385ZM19.1304 17.4052L17.9823 18.5533C17.5751 18.2579 17.0035 18.2845 16.6329 18.6527C16.2169 19.0575 16.2168 19.7251 16.6326 20.13L17.251 20.7484C17.4586 20.9671 17.7401 21.0582 17.9917 21.0582C18.2546 21.0582 18.5207 20.9601 18.728 20.7528L20.603 18.8778C21.0074 18.4734 21.0074 17.8096 20.603 17.4052L20.603 17.4052L20.5979 17.4003C20.1892 17.0052 19.5375 16.9981 19.1304 17.4052ZM18.5084 14.0832H25.4917C26.9255 14.0832 28.0199 14.5089 28.7554 15.2445C29.4909 15.98 29.9167 17.0744 29.9167 18.5082V25.4915C29.9167 26.9253 29.4909 28.0197 28.7554 28.7552C28.0199 29.4907 26.9255 29.9165 25.4917 29.9165H18.5084C17.0745 29.9165 15.9802 29.4907 15.2446 28.7552C14.5091 28.0197 14.0834 26.9253 14.0834 25.4915V18.5082C14.0834 17.0744 14.5091 15.98 15.2446 15.2445C15.9802 14.5089 17.0745 14.0832 18.5084 14.0832ZM22.2584 26.2665H26.6334C27.2171 26.2665 27.675 25.793 27.675 25.2248C27.675 24.6567 27.2171 24.1832 26.6334 24.1832H22.2584C21.6866 24.1832 21.2167 24.6531 21.2167 25.2248C21.2167 25.7966 21.6866 26.2665 22.2584 26.2665ZM22.2584 20.4332H26.6334C27.2171 20.4332 27.675 19.9597 27.675 19.3915C27.675 18.8233 27.2171 18.3498 26.6334 18.3498H22.2584C21.6866 18.3498 21.2167 18.8197 21.2167 19.3915C21.2167 19.9633 21.6866 20.4332 22.2584 20.4332Z" fill="white" stroke="white" stroke-width="0.833333"/>
</svg>
