<svg width="15" height="15" viewBox="0 0 15 15" fill="none" xmlns="http://www.w3.org/2000/svg">
<path d="M7.37484 6.91667V10.4167M5.62484 8.66667H9.12484M13.2082 11.5833C13.2082 11.8928 13.0853 12.1895 12.8665 12.4083C12.6477 12.6271 12.3509 12.75 12.0415 12.75H2.70817C2.39875 12.75 2.10201 12.6271 1.88321 12.4083C1.66442 12.1895 1.5415 11.8928 1.5415 11.5833V3.41667C1.5415 3.10725 1.66442 2.8105 1.88321 2.59171C2.10201 2.37292 2.39875 2.25 2.70817 2.25H5.62484L6.7915 4H12.0415C12.3509 4 12.6477 4.12292 12.8665 4.34171C13.0853 4.5605 13.2082 4.85725 13.2082 5.16667V11.5833Z" stroke="#98A2B3" stroke-linecap="round" stroke-linejoin="round"/>
</svg>
