<svg width="21" height="21" viewBox="0 0 21 21" fill="none" xmlns="http://www.w3.org/2000/svg">
<path d="M6.3243 12.1591L5.80218 14.1083L3.89381 14.1487C3.32349 13.0908 3 11.8806 3 10.5944C3 9.35075 3.30246 8.17794 3.83859 7.14526H3.839L5.53798 7.45675L6.28223 9.14553C6.12646 9.59966 6.04156 10.0872 6.04156 10.5944C6.04162 11.145 6.14134 11.6725 6.3243 12.1591Z" fill="#FBBB00"/>
<path d="M17.8693 9.19312C17.9554 9.6468 18.0003 10.1153 18.0003 10.5942C18.0003 11.1312 17.9439 11.6549 17.8363 12.1601C17.4712 13.8794 16.5172 15.3806 15.1957 16.4429L15.1953 16.4425L13.0553 16.3333L12.7524 14.4427C13.6293 13.9284 14.3147 13.1236 14.6757 12.1601H10.6652V9.19312H14.7342H17.8693Z" fill="#518EF8"/>
<path d="M15.1946 16.443L15.195 16.4435C13.9097 17.4765 12.277 18.0947 10.4997 18.0947C7.64354 18.0947 5.16032 16.4983 3.89355 14.149L6.32404 12.1594C6.95741 13.8498 8.58804 15.0531 10.4997 15.0531C11.3214 15.0531 12.0912 14.831 12.7517 14.4432L15.1946 16.443Z" fill="#28B446"/>
<path d="M15.2868 4.82112L12.8571 6.81025C12.1735 6.38293 11.3654 6.13607 10.4996 6.13607C8.54463 6.13607 6.8835 7.39457 6.28187 9.14555L3.83861 7.14529H3.8382C5.08641 4.7387 7.60095 3.09448 10.4996 3.09448C12.3193 3.09448 13.9879 3.7427 15.2868 4.82112Z" fill="#F14336"/>
</svg>
