<svg width="15" height="14" viewBox="0 0 15 14" fill="none" xmlns="http://www.w3.org/2000/svg">
<path d="M12.4062 9.58838V4.41141C12.4062 4.33393 12.3857 4.25785 12.3466 4.19093C12.3076 4.12401 12.2515 4.06866 12.184 4.03054L7.59028 1.43407C7.5246 1.39695 7.45044 1.37744 7.375 1.37744C7.29956 1.37744 7.2254 1.39695 7.15972 1.43407L2.56597 4.03054C2.49853 4.06866 2.44241 4.12401 2.40337 4.19093C2.36432 4.25785 2.34375 4.33393 2.34375 4.41141V9.58838C2.34375 9.66585 2.36432 9.74194 2.40337 9.80886C2.44241 9.87578 2.49853 9.93113 2.56597 9.96925L7.15972 12.5657C7.2254 12.6028 7.29956 12.6223 7.375 12.6223C7.45044 12.6223 7.5246 12.6028 7.59028 12.5657L12.184 9.96925C12.2515 9.93113 12.3076 9.87578 12.3466 9.80886C12.3857 9.74194 12.4063 9.66585 12.4062 9.58838V9.58838Z" stroke="#667085" stroke-width="1.2" stroke-linecap="round" stroke-linejoin="round"/>
</svg>
