<svg width="46" height="46" viewBox="0 0 46 46" fill="none" xmlns="http://www.w3.org/2000/svg">
<circle cx="23" cy="23" r="23" fill="#E5E4FB"/>
<path d="M30.875 23.875H36.125" stroke="#5F57FF" stroke-width="2" stroke-linecap="round" stroke-linejoin="round"/>
<path d="M33.5 21.25V26.5" stroke="#5F57FF" stroke-width="2" stroke-linecap="round" stroke-linejoin="round"/>
<path d="M20.8125 26.5C24.4369 26.5 27.375 23.5619 27.375 19.9375C27.375 16.3131 24.4369 13.375 20.8125 13.375C17.1881 13.375 14.25 16.3131 14.25 19.9375C14.25 23.5619 17.1881 26.5 20.8125 26.5Z" stroke="#5F57FF" stroke-width="2" stroke-miterlimit="10"/>
<path d="M11.4292 30.8748C12.5791 29.5048 14.015 28.4032 15.6361 27.6474C17.2572 26.8916 19.0241 26.5 20.8127 26.5C22.6014 26.5 24.3683 26.8917 25.9894 27.6475C27.6104 28.4032 29.0464 29.5048 30.1963 30.8748" stroke="#5F57FF" stroke-width="2" stroke-linecap="round" stroke-linejoin="round"/>
</svg>
