<svg width="132" height="38" viewBox="0 0 132 38" fill="none" xmlns="http://www.w3.org/2000/svg">
<rect x="0.825378" width="37.5944" height="37.5944" rx="8.44818" fill="#5F57FF"/>
<rect x="0.825378" width="37.5944" height="37.5944" rx="8.44818" fill="url(#paint0_linear_107_1314)" fill-opacity="0.16"/>
<path d="M27.0164 11.6643L21.1375 9.04588C20.2748 8.66465 18.9706 8.66465 18.1078 9.04588L12.2289 11.6643C10.7441 12.3264 10.5234 13.2293 10.5234 13.7109C10.5234 14.1924 10.7441 15.0953 12.2289 15.7574L18.1078 18.3758C18.5392 18.5665 19.0809 18.6668 19.6227 18.6668C20.1644 18.6668 20.7061 18.5665 21.1375 18.3758L27.0164 15.7574C28.5012 15.0953 28.7219 14.1924 28.7219 13.7109C28.7219 13.2293 28.5112 12.3264 27.0164 11.6643Z" fill="white"/>
<path d="M19.6226 23.8534C19.2413 23.8534 18.8601 23.7732 18.509 23.6227L11.7473 20.613C10.714 20.1515 9.91138 18.9176 9.91138 17.7839C9.91138 17.3726 10.2424 17.0416 10.6538 17.0416C11.0651 17.0416 11.3961 17.3726 11.3961 17.7839C11.3961 18.3257 11.8476 19.0279 12.3492 19.2486L19.1109 22.2583C19.432 22.3988 19.8031 22.3988 20.1242 22.2583L26.8859 19.2486C27.3875 19.0279 27.839 18.3357 27.839 17.7839C27.839 17.3726 28.17 17.0416 28.5813 17.0416C28.9927 17.0416 29.3237 17.3726 29.3237 17.7839C29.3237 18.9075 28.5211 20.1515 27.4878 20.613L20.7261 23.6227C20.385 23.7732 20.0038 23.8534 19.6226 23.8534Z" fill="white"/>
<path d="M19.6226 28.8294C19.2413 28.8294 18.8601 28.7491 18.509 28.5987L11.7473 25.589C10.6337 25.0974 9.91138 23.9838 9.91138 22.7599C9.91138 22.3486 10.2424 22.0175 10.6538 22.0175C11.0651 22.0175 11.3961 22.3486 11.3961 22.7599C11.3961 23.3919 11.7673 23.9638 12.3492 24.2246L19.1109 27.2343C19.432 27.3747 19.8031 27.3747 20.1242 27.2343L26.8859 24.2246C27.4577 23.9738 27.839 23.3919 27.839 22.7599C27.839 22.3486 28.17 22.0175 28.5813 22.0175C28.9927 22.0175 29.3237 22.3486 29.3237 22.7599C29.3237 23.9838 28.6014 25.0874 27.4878 25.589L20.7261 28.5987C20.385 28.7491 20.0038 28.8294 19.6226 28.8294Z" fill="white"/>
<path d="M56.6807 28.0573C55.4668 28.0573 54.3318 27.8366 53.2755 27.3952C52.2351 26.9538 51.3207 26.3469 50.5325 25.5744C49.7443 24.7862 49.1295 23.8719 48.6881 22.8314C48.2624 21.7752 48.0496 20.648 48.0496 19.4499C48.0496 18.2518 48.2624 17.1404 48.6881 16.1157C49.1295 15.0753 49.7364 14.1688 50.5089 13.3964C51.2971 12.6081 52.2114 12.0012 53.2519 11.5756C54.2923 11.1342 55.4195 10.9135 56.6334 10.9135C57.8472 10.9135 58.9744 11.1342 60.0149 11.5756C61.0553 12.0012 61.9696 12.6081 62.7579 13.3964C63.5461 14.1688 64.153 15.0753 64.5787 16.1157C65.0201 17.1562 65.2408 18.2755 65.2408 19.4736C65.2408 20.6717 65.0201 21.7909 64.5787 22.8314C64.153 23.8719 63.5461 24.7862 62.7579 25.5744C61.9854 26.3469 61.079 26.9538 60.0385 27.3952C58.998 27.8366 57.8788 28.0573 56.6807 28.0573ZM56.6334 25.0542C57.6896 25.0542 58.6118 24.8177 59.4 24.3448C60.204 23.8719 60.8267 23.2176 61.2681 22.3821C61.7253 21.5466 61.9539 20.5692 61.9539 19.4499C61.9539 18.6302 61.8199 17.8814 61.5519 17.2035C61.2997 16.5256 60.9371 15.9423 60.4641 15.4536C59.9912 14.9492 59.4316 14.5629 58.7852 14.2949C58.1389 14.0269 57.4216 13.8929 56.6334 13.8929C55.5929 13.8929 54.6707 14.1294 53.8667 14.6023C53.0785 15.0595 52.4558 15.7059 51.9986 16.5414C51.5572 17.3769 51.3365 18.3464 51.3365 19.4499C51.3365 20.2854 51.4626 21.05 51.7149 21.7437C51.9828 22.4373 52.3454 23.0285 52.8026 23.5172C53.2755 24.0059 53.8352 24.3842 54.4815 24.6522C55.1436 24.9202 55.8609 25.0542 56.6334 25.0542ZM64.1767 29.0268L56.5624 21.4126L58.5015 19.4499L66.1394 27.0878L64.1767 29.0268ZM73.3117 28.0337C72.1609 28.0337 71.1204 27.7736 70.1903 27.2533C69.276 26.7173 68.5429 26.0001 67.9912 25.1015C67.4552 24.1871 67.1872 23.1703 67.1872 22.0511C67.1872 20.9318 67.4552 19.9307 67.9912 19.0479C68.5272 18.1493 69.2602 17.4399 70.1903 16.9197C71.1204 16.3837 72.153 16.1157 73.2881 16.1157C74.4546 16.1157 75.4951 16.3837 76.4094 16.9197C77.3395 17.4399 78.0726 18.1493 78.6086 19.0479C79.1446 19.9307 79.4126 20.9318 79.4126 22.0511C79.4126 23.1703 79.1446 24.1871 78.6086 25.1015C78.0726 26.0001 77.3395 26.7173 76.4094 27.2533C75.4951 27.7736 74.4625 28.0337 73.3117 28.0337ZM73.2881 25.1488C73.8713 25.1488 74.3837 25.0227 74.8251 24.7704C75.2823 24.5024 75.6291 24.1399 75.8655 23.6827C76.1178 23.2097 76.2439 22.6738 76.2439 22.0747C76.2439 21.4757 76.1178 20.9475 75.8655 20.4904C75.6133 20.0332 75.2665 19.6785 74.8251 19.4263C74.3837 19.1583 73.8713 19.0243 73.2881 19.0243C72.7205 19.0243 72.2161 19.1583 71.7747 19.4263C71.3333 19.6785 70.9864 20.0332 70.7342 20.4904C70.482 20.9475 70.3559 21.4757 70.3559 22.0747C70.3559 22.6738 70.482 23.2097 70.7342 23.6827C70.9864 24.1399 71.3333 24.5024 71.7747 24.7704C72.2161 25.0227 72.7205 25.1488 73.2881 25.1488ZM86.7746 28.0337C85.6238 28.0337 84.5834 27.7736 83.6533 27.2533C82.7389 26.7173 82.0059 26.0001 81.4541 25.1015C80.9181 24.1871 80.6501 23.1703 80.6501 22.0511C80.6501 20.9318 80.9181 19.9307 81.4541 19.0479C81.9901 18.1493 82.7232 17.4399 83.6533 16.9197C84.5834 16.3837 85.6159 16.1157 86.751 16.1157C87.9175 16.1157 88.958 16.3837 89.8723 16.9197C90.8024 17.4399 91.5355 18.1493 92.0715 19.0479C92.6075 19.9307 92.8755 20.9318 92.8755 22.0511C92.8755 23.1703 92.6075 24.1871 92.0715 25.1015C91.5355 26.0001 90.8024 26.7173 89.8723 27.2533C88.958 27.7736 87.9254 28.0337 86.7746 28.0337ZM86.751 25.1488C87.3343 25.1488 87.8466 25.0227 88.288 24.7704C88.7452 24.5024 89.092 24.1399 89.3285 23.6827C89.5807 23.2097 89.7068 22.6738 89.7068 22.0747C89.7068 21.4757 89.5807 20.9475 89.3285 20.4904C89.0762 20.0332 88.7294 19.6785 88.288 19.4263C87.8466 19.1583 87.3343 19.0243 86.751 19.0243C86.1835 19.0243 85.679 19.1583 85.2376 19.4263C84.7962 19.6785 84.4494 20.0332 84.1971 20.4904C83.9449 20.9475 83.8188 21.4757 83.8188 22.0747C83.8188 22.6738 83.9449 23.2097 84.1971 23.6827C84.4494 24.1399 84.7962 24.5024 85.2376 24.7704C85.679 25.0227 86.1835 25.1488 86.751 25.1488ZM97.5655 21.6254V19.0006H101.42C101.924 19.0006 102.382 18.8982 102.791 18.6932C103.201 18.4883 103.524 18.1966 103.761 17.8183C103.997 17.4242 104.116 16.9512 104.116 16.3995C104.116 15.8635 103.997 15.3984 103.761 15.0043C103.524 14.6102 103.201 14.3107 102.791 14.1058C102.382 13.9008 101.924 13.7984 101.42 13.7984H97.5655V11.1736H101.751C102.807 11.1736 103.753 11.3864 104.589 11.812C105.44 12.2377 106.11 12.8446 106.599 13.6328C107.087 14.4053 107.332 15.3275 107.332 16.3995C107.332 17.4715 107.087 18.4016 106.599 19.1898C106.11 19.9623 105.44 20.5613 104.589 20.987C103.753 21.4126 102.807 21.6254 101.751 21.6254H97.5655ZM95.2008 27.7972V11.1736H98.4168V27.7972H95.2008ZM109.441 27.7972V16.3758H112.539V27.7972H109.441ZM112.539 21.4835L111.333 20.6795C111.475 19.2765 111.885 18.173 112.562 17.369C113.24 16.5493 114.218 16.1394 115.495 16.1394C116.046 16.1394 116.543 16.234 116.984 16.4231C117.426 16.5965 117.828 16.8882 118.19 17.2981L116.251 19.5209C116.078 19.3317 115.865 19.1898 115.613 19.0952C115.376 19.0006 115.101 18.9533 114.785 18.9533C114.123 18.9533 113.579 19.1662 113.154 19.5918C112.744 20.0017 112.539 20.6323 112.539 21.4835ZM124.323 28.0337C123.172 28.0337 122.132 27.7736 121.202 27.2533C120.287 26.7173 119.554 26.0001 119.003 25.1015C118.467 24.1871 118.199 23.1703 118.199 22.0511C118.199 20.9318 118.467 19.9307 119.003 19.0479C119.539 18.1493 120.272 17.4399 121.202 16.9197C122.132 16.3837 123.164 16.1157 124.299 16.1157C125.466 16.1157 126.506 16.3837 127.421 16.9197C128.351 17.4399 129.084 18.1493 129.62 19.0479C130.156 19.9307 130.424 20.9318 130.424 22.0511C130.424 23.1703 130.156 24.1871 129.62 25.1015C129.084 26.0001 128.351 26.7173 127.421 27.2533C126.506 27.7736 125.474 28.0337 124.323 28.0337ZM124.299 25.1488C124.883 25.1488 125.395 25.0227 125.836 24.7704C126.294 24.5024 126.64 24.1399 126.877 23.6827C127.129 23.2097 127.255 22.6738 127.255 22.0747C127.255 21.4757 127.129 20.9475 126.877 20.4904C126.625 20.0332 126.278 19.6785 125.836 19.4263C125.395 19.1583 124.883 19.0243 124.299 19.0243C123.732 19.0243 123.227 19.1583 122.786 19.4263C122.345 19.6785 121.998 20.0332 121.746 20.4904C121.493 20.9475 121.367 21.4757 121.367 22.0747C121.367 22.6738 121.493 23.2097 121.746 23.6827C121.998 24.1399 122.345 24.5024 122.786 24.7704C123.227 25.0227 123.732 25.1488 124.299 25.1488Z" fill="#0D0D12"/>
<defs>
<linearGradient id="paint0_linear_107_1314" x1="19.6226" y1="0" x2="19.6226" y2="37.5944" gradientUnits="userSpaceOnUse">
<stop stop-color="white"/>
<stop offset="1" stop-color="white" stop-opacity="0"/>
</linearGradient>
</defs>
</svg>
