<svg width="25" height="24" viewBox="0 0 25 24" fill="none" xmlns="http://www.w3.org/2000/svg">
<path d="M12.668 13C13.2203 13 13.668 12.5523 13.668 12C13.668 11.4477 13.2203 11 12.668 11C12.1157 11 11.668 11.4477 11.668 12C11.668 12.5523 12.1157 13 12.668 13Z" stroke="#475467" stroke-width="2" stroke-linecap="round" stroke-linejoin="round"/>
<path d="M19.668 13C20.2203 13 20.668 12.5523 20.668 12C20.668 11.4477 20.2203 11 19.668 11C19.1157 11 18.668 11.4477 18.668 12C18.668 12.5523 19.1157 13 19.668 13Z" stroke="#475467" stroke-width="2" stroke-linecap="round" stroke-linejoin="round"/>
<path d="M5.66797 13C6.22025 13 6.66797 12.5523 6.66797 12C6.66797 11.4477 6.22025 11 5.66797 11C5.11568 11 4.66797 11.4477 4.66797 12C4.66797 12.5523 5.11568 13 5.66797 13Z" stroke="#475467" stroke-width="2" stroke-linecap="round" stroke-linejoin="round"/>
</svg>
