<svg width="23" height="24" viewBox="0 0 23 24" fill="none" xmlns="http://www.w3.org/2000/svg">
<path d="M11.3517 13C11.8741 13 12.2976 12.5523 12.2976 12C12.2976 11.4477 11.8741 11 11.3517 11C10.8292 11 10.4057 11.4477 10.4057 12C10.4057 12.5523 10.8292 13 11.3517 13Z" stroke="#5F57FF" stroke-width="2" stroke-linecap="round" stroke-linejoin="round"/>
<path d="M17.9735 13C18.4959 13 18.9194 12.5523 18.9194 12C18.9194 11.4477 18.4959 11 17.9735 11C17.451 11 17.0275 11.4477 17.0275 12C17.0275 12.5523 17.451 13 17.9735 13Z" stroke="#5F57FF" stroke-width="2" stroke-linecap="round" stroke-linejoin="round"/>
<path d="M4.7299 13C5.25235 13 5.67587 12.5523 5.67587 12C5.67587 11.4477 5.25235 11 4.7299 11C4.20746 11 3.78394 11.4477 3.78394 12C3.78394 12.5523 4.20746 13 4.7299 13Z" stroke="#5F57FF" stroke-width="2" stroke-linecap="round" stroke-linejoin="round"/>
</svg>
