<svg width="189" height="152" viewBox="0 0 189 152" fill="none" xmlns="http://www.w3.org/2000/svg">
<path fill-rule="evenodd" clip-rule="evenodd" d="M47.628 101.704H116.424C116.813 101.704 117.193 101.662 117.558 101.582C117.923 101.662 118.303 101.704 118.692 101.704H158.004C160.927 101.704 163.296 99.3344 163.296 96.4117C163.296 93.489 160.927 91.1197 158.004 91.1197H153.468C150.545 91.1197 148.176 88.7504 148.176 85.8277C148.176 82.905 150.545 80.5357 153.468 80.5357H167.832C170.755 80.5357 173.124 78.1664 173.124 75.2437C173.124 72.321 170.755 69.9517 167.832 69.9517H151.2C154.123 69.9517 156.492 67.5824 156.492 64.6597C156.492 61.737 154.123 59.3677 151.2 59.3677H102.816C105.739 59.3677 108.108 56.9984 108.108 54.0757C108.108 51.153 105.739 48.7837 102.816 48.7837H59.724C56.8013 48.7837 54.432 51.153 54.432 54.0757C54.432 56.9984 56.8013 59.3677 59.724 59.3677H29.484C26.5613 59.3677 24.192 61.737 24.192 64.6597C24.192 67.5824 26.5613 69.9517 29.484 69.9517H48.384C51.3067 69.9517 53.676 72.321 53.676 75.2437C53.676 78.1664 51.3067 80.5357 48.384 80.5357H18.144C15.2213 80.5357 12.852 82.905 12.852 85.8277C12.852 88.7504 15.2213 91.1197 18.144 91.1197H47.628C44.7053 91.1197 42.336 93.489 42.336 96.4117C42.336 99.3344 44.7053 101.704 47.628 101.704ZM170.856 101.704C173.779 101.704 176.148 99.3344 176.148 96.4117C176.148 93.489 173.779 91.1197 170.856 91.1197C167.933 91.1197 165.564 93.489 165.564 96.4117C165.564 99.3344 167.933 101.704 170.856 101.704Z" fill="#ECEFF3"/>
<g clip-path="url(#clip0_874_5863)">
<path d="M118.953 36.4155H75.8573C73.2685 36.4155 71.1698 38.5142 71.1698 41.103V96.5929C71.1698 99.1817 73.2685 101.28 75.8573 101.28H118.953C121.542 101.28 123.64 99.1817 123.64 96.5929V41.103C123.64 38.5142 121.542 36.4155 118.953 36.4155Z" fill="#F7F7F9"/>
<path d="M118.953 36.4155H114.265C115.509 36.4155 116.701 36.9094 117.58 37.7885C118.459 38.6675 118.953 39.8598 118.953 41.103V96.5929C118.953 97.8361 118.459 99.0284 117.58 99.9074C116.701 100.787 115.509 101.28 114.265 101.28H118.953C120.196 101.28 121.388 100.787 122.267 99.9074C123.147 99.0284 123.64 97.8361 123.64 96.5929V41.103C123.64 39.8598 123.147 38.6675 122.267 37.7885C121.388 36.9094 120.196 36.4155 118.953 36.4155Z" fill="#E1E1E5"/>
<path d="M122.943 114.072H70.4426C69.1994 114.072 68.0071 113.578 67.1281 112.699C66.249 111.82 65.7551 110.627 65.7551 109.384V71.103C65.7551 69.8598 66.249 68.6675 67.1281 67.7885C68.0071 66.9094 69.1994 66.4155 70.4426 66.4155H93.3086C94.2146 66.4155 95.0946 66.7184 95.8087 67.2759C96.5228 67.8335 97.0301 68.6138 97.2498 69.4927L98.055 72.7133C98.2747 73.5923 98.782 74.3726 99.4961 74.9301C100.21 75.4877 101.09 75.7905 101.996 75.7905H122.943C124.186 75.7905 125.378 76.2844 126.257 77.1635C127.136 78.0425 127.63 79.2348 127.63 80.478V109.384C127.63 110.627 127.136 111.82 126.257 112.699C125.378 113.578 124.186 114.072 122.943 114.072Z" fill="#5F57FF"/>
<path d="M92.5623 69.4927L93.3675 72.7133C93.5872 73.5923 94.0945 74.3726 94.8086 74.9301C95.5227 75.4877 96.4027 75.7905 97.3088 75.7905H101.996C101.09 75.7905 100.21 75.4877 99.4961 74.9301C98.782 74.3726 98.2747 73.5923 98.055 72.7133L97.2498 69.4927C97.0301 68.6138 96.5229 67.8335 95.8087 67.2759C95.0946 66.7184 94.2146 66.4155 93.3086 66.4155H88.6211C89.5271 66.4155 90.4071 66.7184 91.1212 67.2759C91.8354 67.8335 92.3426 68.6138 92.5623 69.4927ZM122.943 75.7905H118.255C119.498 75.7905 120.691 76.2844 121.57 77.1635C122.449 78.0425 122.943 79.2348 122.943 80.478V109.384C122.943 110.627 122.449 111.82 121.57 112.699C120.691 113.578 119.498 114.072 118.255 114.072H122.943C124.186 114.072 125.378 113.578 126.257 112.699C127.136 111.82 127.63 110.627 127.63 109.384V80.478C127.63 79.2348 127.136 78.0425 126.257 77.1635C125.378 76.2844 124.186 75.7905 122.943 75.7905Z" fill="#322CA0"/>
<path d="M125.422 77.4756L130.7 74.4287L134.371 80.7887L129.094 83.8356L125.422 77.4756Z" fill="#BFC0C9"/>
<path d="M130.699 74.4287L128.599 75.6415L132.271 82.0014L129.094 83.8356L134.371 80.7887L130.699 74.4287Z" fill="#AFB0BA"/>
<path d="M129.755 82.1868L132.613 80.5362C133.039 80.2906 133.508 80.1312 133.995 80.0671C134.482 80.003 134.977 80.0355 135.451 80.1626C135.926 80.2897 136.371 80.5091 136.76 80.8081C137.15 81.1071 137.477 81.4799 137.722 81.9052L142.688 90.5065C143.042 91.1196 143.272 91.7963 143.364 92.4982C143.457 93.2 143.41 93.9132 143.227 94.597C143.044 95.2808 142.727 95.9218 142.297 96.4834C141.866 97.045 141.328 97.5163 140.715 97.8702C140.102 98.2242 139.425 98.4539 138.723 98.5463C138.022 98.6387 137.308 98.592 136.625 98.4088C135.941 98.2255 135.3 97.9094 134.738 97.4785C134.177 97.0475 133.705 96.5102 133.351 95.8971L128.385 87.2959C128.14 86.8705 127.981 86.4009 127.916 85.914C127.852 85.427 127.885 84.9322 128.012 84.4578C128.139 83.9834 128.358 83.5386 128.657 83.149C128.956 82.7593 129.329 82.4324 129.755 82.1868Z" fill="#5D61AB"/>
<path d="M142.688 90.5062L137.722 81.9051C137.226 81.0461 136.409 80.4193 135.451 80.1626C134.493 79.9059 133.472 80.0403 132.613 80.5362L132.102 80.8311C132.479 81.1259 132.796 81.4906 133.035 81.9051L138.001 90.5064C138.355 91.1194 138.584 91.7962 138.677 92.4981C138.769 93.1999 138.722 93.9131 138.539 94.5969C138.356 95.2807 138.04 95.9217 137.609 96.4833C137.178 97.0449 136.641 97.5162 136.028 97.8701C135.911 97.9373 135.793 97.9978 135.674 98.0553C136.466 98.4384 137.339 98.6218 138.218 98.5895C139.096 98.5572 139.954 98.3102 140.715 97.8701C141.328 97.5162 141.865 97.0449 142.296 96.4833C142.727 95.9217 143.044 95.2807 143.227 94.5969C143.41 93.9131 143.457 93.1999 143.364 92.4981C143.272 91.7962 143.042 91.1194 142.688 90.5064V90.5062Z" fill="#505493"/>
<path d="M120.212 78.9285C129.364 78.9285 136.783 71.5097 136.783 62.3581C136.783 53.2064 129.364 45.7876 120.212 45.7876C111.061 45.7876 103.642 53.2064 103.642 62.3581C103.642 71.5097 111.061 78.9285 120.212 78.9285Z" fill="#B3B7FE"/>
<path d="M134.563 54.0727C132.904 51.2066 130.425 48.9024 127.446 47.4563C124.467 46.0101 121.124 45.4882 117.846 45.9577C121.794 46.5159 125.409 48.4798 128.027 51.4889C130.644 54.498 132.088 58.3502 132.093 62.3382C132.099 66.3263 130.666 70.1825 128.057 73.1988C125.448 76.2151 121.838 78.189 117.891 78.7581C120.967 79.1956 124.103 78.7593 126.943 77.4989C129.782 76.2385 132.21 74.205 133.949 71.6305C135.687 69.056 136.667 66.0444 136.776 62.9397C136.884 59.8349 136.117 56.7623 134.563 54.0727Z" fill="#6369D1"/>
<path d="M120.212 73.374C126.296 73.374 131.228 68.4419 131.228 62.3579C131.228 56.2739 126.296 51.3418 120.212 51.3418C114.128 51.3418 109.196 56.2739 109.196 62.3579C109.196 68.4419 114.128 73.374 120.212 73.374Z" fill="#EAEBFF"/>
<path d="M77.107 51.6499H101.67C101.981 51.6499 102.279 51.5264 102.499 51.3067C102.719 51.0869 102.842 50.7888 102.842 50.478C102.842 50.1672 102.719 49.8692 102.499 49.6494C102.279 49.4296 101.981 49.3062 101.67 49.3062H77.107C76.7962 49.3062 76.4981 49.4296 76.2784 49.6494C76.0586 49.8692 75.9351 50.1672 75.9351 50.478C75.9351 50.7888 76.0586 51.0869 76.2784 51.3067C76.4981 51.5264 76.7962 51.6499 77.107 51.6499ZM77.107 44.6187H111.045C111.356 44.6187 111.654 44.4952 111.874 44.2754C112.094 44.0556 112.217 43.7576 112.217 43.4468C112.217 43.136 112.094 42.8379 111.874 42.6181C111.654 42.3984 111.356 42.2749 111.045 42.2749H77.107C76.7962 42.2749 76.4981 42.3984 76.2784 42.6181C76.0586 42.8379 75.9351 43.136 75.9351 43.4468C75.9351 43.7576 76.0586 44.0556 76.2784 44.2754C76.4981 44.4952 76.7962 44.6187 77.107 44.6187ZM100.498 57.5093C100.498 57.1985 100.375 56.9004 100.155 56.6806C99.9352 56.4609 99.6372 56.3374 99.3264 56.3374H77.107C76.7962 56.3374 76.4981 56.4609 76.2784 56.6806C76.0586 56.9004 75.9351 57.1985 75.9351 57.5093C75.9351 57.8201 76.0586 58.1181 76.2784 58.3379C76.4981 58.5577 76.7962 58.6812 77.107 58.6812H99.3264C99.6372 58.6812 99.9352 58.5577 100.155 58.3379C100.375 58.1181 100.498 57.8201 100.498 57.5093ZM143.703 89.9202L138.737 81.3191C138.317 80.592 137.717 79.9848 136.995 79.5555C136.274 79.1262 135.454 78.889 134.614 78.8668L132.483 75.1735C134.756 72.9985 136.41 70.2579 137.275 67.2328C138.139 64.2078 138.183 61.0072 137.403 57.9594C136.622 54.9116 135.044 52.1264 132.832 49.8895C130.62 47.6526 127.852 46.0446 124.813 45.2304V41.103C124.811 39.5496 124.193 38.0602 123.095 36.9617C121.996 35.8633 120.507 35.2454 118.954 35.2437H75.8567C74.3032 35.2454 72.8139 35.8633 71.7154 36.9617C70.6169 38.0602 69.9991 39.5496 69.9973 41.103V65.2624C68.5255 65.3761 67.1507 66.0405 66.1472 67.1231C65.1437 68.2057 64.5852 69.6269 64.5833 71.103V109.384C64.585 110.938 65.2029 112.427 66.3013 113.526C67.3998 114.624 68.8892 115.242 70.4426 115.244H122.943C124.496 115.242 125.985 114.624 127.084 113.526C128.182 112.427 128.8 110.938 128.802 109.384V90.3608L132.337 96.4827C132.766 97.2306 133.339 97.8859 134.023 98.4108C134.707 98.9357 135.488 99.3197 136.321 99.5405C136.879 99.6904 137.453 99.7665 138.031 99.7669C139.182 99.764 140.311 99.4585 141.307 98.8813C142.303 98.3041 143.129 97.4753 143.704 96.4781C144.278 95.4808 144.581 94.35 144.581 93.1991C144.58 92.0482 144.278 90.9175 143.703 89.9204V89.9202ZM72.3411 41.103C72.3421 40.1709 72.7128 39.2773 73.3719 38.6182C74.031 37.9592 74.9246 37.5884 75.8567 37.5874H118.954C119.886 37.5884 120.779 37.9592 121.438 38.6182C122.097 39.2773 122.468 40.1709 122.469 41.103V44.7649C119.191 44.346 115.86 44.8512 112.853 46.2234C109.846 47.5957 107.282 49.7805 105.45 52.5316C103.619 55.2827 102.591 58.4907 102.485 61.7943C102.378 65.0978 103.196 68.3654 104.847 71.229C105.554 72.4556 106.405 73.5935 107.382 74.6187H101.996C101.351 74.6194 100.724 74.4041 100.216 74.0072C99.708 73.6103 99.3474 73.0546 99.1918 72.4288L98.3872 69.2072C98.1046 68.0744 97.451 67.0687 96.5306 66.3504C95.6101 65.6321 94.4758 65.2425 93.3083 65.2437H72.3411V41.103ZM126.578 84.1818C126.499 84.7854 126.458 85.3936 126.458 86.0024V109.384C126.457 110.316 126.086 111.21 125.427 111.869C124.768 112.528 123.875 112.899 122.943 112.9H70.4426C69.5105 112.899 68.6169 112.528 67.9578 111.869C67.2988 111.21 66.928 110.316 66.927 109.384V71.103C66.928 70.1709 67.2988 69.2773 67.9578 68.6182C68.6169 67.9592 69.5105 67.5884 70.4426 67.5874H93.3083C93.953 67.5868 94.5795 67.8019 95.0878 68.1985C95.5962 68.5951 95.9572 69.1504 96.1134 69.776L96.9179 72.9968C97.1996 74.1301 97.8527 75.1364 98.773 75.8552C99.6934 76.574 100.828 76.9638 101.996 76.9624H110.13C113.113 79.0027 116.641 80.0968 120.254 80.1021C121.921 80.1016 123.579 79.8633 125.178 79.3943L126.833 82.2618L126.578 84.1818ZM125.368 76.8697C125.35 76.8757 125.331 76.8827 125.312 76.8896C122.963 77.7078 120.45 77.947 117.988 77.587C115.526 77.227 113.187 76.2784 111.17 74.8216L111.166 74.8185C108.537 72.9095 106.579 70.218 105.572 67.1289C104.566 64.0398 104.562 60.7114 105.561 57.62C106.561 54.5285 108.513 51.8325 111.137 49.9174C113.762 48.0024 116.925 46.9666 120.174 46.9582C121.532 46.9592 122.884 47.1384 124.196 47.4912C127.138 48.2774 129.781 49.9189 131.79 52.2079C133.799 54.4969 135.084 57.3305 135.482 60.35C135.879 63.3695 135.372 66.4392 134.025 69.1704C132.677 71.9017 130.55 74.1717 127.911 75.6932C127.101 76.1613 126.25 76.5551 125.368 76.8697ZM127.411 78.5744C128.556 78.0657 129.645 77.4373 130.658 76.6997L132.224 79.4141C132.158 79.4485 132.092 79.4837 132.027 79.5212L129.169 81.1718C129.104 81.2093 129.04 81.2485 128.977 81.2887L127.411 78.5744ZM140.129 96.8552C139.649 97.1322 139.12 97.312 138.57 97.3843C138.021 97.4566 137.463 97.4201 136.928 97.2767C136.393 97.1333 135.891 96.8859 135.452 96.5486C135.012 96.2113 134.643 95.7908 134.366 95.311L129.4 86.7097C129.232 86.4177 129.122 86.0953 129.078 85.7609C129.034 85.4265 129.057 85.0868 129.144 84.761C129.231 84.4352 129.382 84.1299 129.587 83.8623C129.792 83.5947 130.048 83.3702 130.34 83.2016L133.199 81.551C133.479 81.3892 133.787 81.2818 134.106 81.2343L134.109 81.234C134.232 81.2156 134.355 81.2062 134.479 81.2058C134.705 81.206 134.93 81.2358 135.148 81.2944C135.474 81.3809 135.78 81.5311 136.048 81.7365C136.315 81.9419 136.54 82.1984 136.707 82.491L141.673 91.0922C142.232 92.0615 142.382 93.2126 142.093 94.2929C141.803 95.3733 141.097 96.2947 140.129 96.8551V96.8552ZM130.767 56.2638C129.562 54.1774 127.765 52.4953 125.604 51.4301C123.442 50.3648 121.014 49.9643 118.625 50.2792C116.236 50.5941 113.994 51.6101 112.183 53.199C110.371 54.7879 109.072 56.8781 108.448 59.2056C107.824 61.533 107.905 63.9931 108.679 66.2748C109.453 68.5565 110.887 70.5574 112.798 72.0245C114.71 73.4916 117.013 74.3591 119.418 74.5172C121.822 74.6753 124.219 74.117 126.306 72.9129C129.103 71.294 131.143 68.632 131.979 65.5108C132.816 62.3896 132.38 59.0641 130.767 56.2638ZM125.134 70.8832C123.448 71.8563 121.512 72.3076 119.569 72.1801C117.627 72.0526 115.766 71.352 114.222 70.1668C112.677 68.9817 111.519 67.3653 110.894 65.522C110.268 63.6787 110.203 61.6912 110.707 59.811C111.21 57.9307 112.26 56.242 113.724 54.9585C115.187 53.6749 116.999 52.8541 118.929 52.5999C120.858 52.3456 122.82 52.6694 124.566 53.5301C126.312 54.3909 127.764 55.75 128.737 57.4357C130.04 59.6974 130.392 62.3834 129.716 64.9044C129.041 67.4254 127.393 69.5756 125.134 70.8832Z" fill="#101828"/>
</g>
<defs>
<clipPath id="clip0_874_5863">
<rect width="80" height="80" fill="white" transform="translate(64.5833 35.2437)"/>
</clipPath>
</defs>
</svg>
