<svg width="189" height="152" viewBox="0 0 189 152" fill="none" xmlns="http://www.w3.org/2000/svg">
<path fill-rule="evenodd" clip-rule="evenodd" d="M47.628 101.704H116.424C116.813 101.704 117.193 101.662 117.558 101.582C117.923 101.662 118.303 101.704 118.692 101.704H158.004C160.927 101.704 163.296 99.3344 163.296 96.4117C163.296 93.489 160.927 91.1197 158.004 91.1197H153.468C150.545 91.1197 148.176 88.7504 148.176 85.8277C148.176 82.905 150.545 80.5357 153.468 80.5357H167.832C170.755 80.5357 173.124 78.1664 173.124 75.2437C173.124 72.321 170.755 69.9517 167.832 69.9517H151.2C154.123 69.9517 156.492 67.5824 156.492 64.6597C156.492 61.737 154.123 59.3677 151.2 59.3677H102.816C105.739 59.3677 108.108 56.9984 108.108 54.0757C108.108 51.153 105.739 48.7837 102.816 48.7837H59.724C56.8013 48.7837 54.432 51.153 54.432 54.0757C54.432 56.9984 56.8013 59.3677 59.724 59.3677H29.484C26.5613 59.3677 24.192 61.737 24.192 64.6597C24.192 67.5824 26.5613 69.9517 29.484 69.9517H48.384C51.3067 69.9517 53.676 72.321 53.676 75.2437C53.676 78.1664 51.3067 80.5357 48.384 80.5357H18.144C15.2213 80.5357 12.852 82.905 12.852 85.8277C12.852 88.7504 15.2213 91.1197 18.144 91.1197H47.628C44.7053 91.1197 42.336 93.489 42.336 96.4117C42.336 99.3344 44.7053 101.704 47.628 101.704ZM170.856 101.704C173.779 101.704 176.148 99.3344 176.148 96.4117C176.148 93.489 173.779 91.1197 170.856 91.1197C167.933 91.1197 165.564 93.489 165.564 96.4117C165.564 99.3344 167.933 101.704 170.856 101.704Z" fill="#ECEFF3"/>
<path d="M134.5 105.244C134.336 105.244 134.173 105.211 134.022 105.149C133.87 105.086 133.732 104.994 133.616 104.878C133.5 104.762 133.408 104.624 133.345 104.472C133.282 104.32 133.25 104.158 133.25 103.994V98.9937C133.25 98.6621 133.382 98.3442 133.616 98.1098C133.851 97.8753 134.168 97.7437 134.5 97.7437C134.832 97.7437 135.149 97.8753 135.384 98.1098C135.618 98.3442 135.75 98.6621 135.75 98.9937V103.994C135.75 104.158 135.718 104.32 135.655 104.472C135.592 104.624 135.5 104.762 135.384 104.878C135.268 104.994 135.13 105.086 134.978 105.149C134.827 105.211 134.664 105.244 134.5 105.244Z" fill="#56585D"/>
<path d="M118.25 43.9937H75.75C72.9886 43.9937 70.75 46.2322 70.75 48.9937V108.994C70.75 111.755 72.9886 113.994 75.75 113.994H118.25C121.011 113.994 123.25 111.755 123.25 108.994V48.9937C123.25 46.2322 121.011 43.9937 118.25 43.9937Z" fill="#5F57FF"/>
<path d="M73.25 108.994V48.9937C73.25 47.6676 73.7768 46.3958 74.7145 45.4581C75.6521 44.5204 76.9239 43.9937 78.25 43.9937H75.75C74.4239 43.9937 73.1521 44.5204 72.2145 45.4581C71.2768 46.3958 70.75 47.6676 70.75 48.9937V108.994C70.75 110.32 71.2768 111.592 72.2145 112.529C73.1521 113.467 74.4239 113.994 75.75 113.994H78.25C76.9239 113.994 75.6521 113.467 74.7145 112.529C73.7768 111.592 73.25 110.32 73.25 108.994Z" fill="#474B8B"/>
<path d="M108.25 108.994H78.25C77.587 108.994 76.9511 108.73 76.4822 108.261C76.0134 107.793 75.75 107.157 75.75 106.494V51.4937C75.75 50.8306 76.0134 50.1947 76.4822 49.7259C76.9511 49.257 77.587 48.9937 78.25 48.9937H115.75C116.413 48.9937 117.049 49.257 117.518 49.7259C117.987 50.1947 118.25 50.8306 118.25 51.4937V98.9932" fill="white"/>
<path d="M78.25 106.494V51.4937C78.25 50.8306 78.5134 50.1947 78.9822 49.7259C79.4511 49.257 80.087 48.9937 80.75 48.9937H78.25C77.587 48.9937 76.9511 49.257 76.4822 49.7259C76.0134 50.1947 75.75 50.8306 75.75 51.4937V106.494C75.75 107.157 76.0134 107.793 76.4822 108.261C76.9511 108.73 77.587 108.994 78.25 108.994H80.75C80.087 108.994 79.4511 108.73 78.9822 108.261C78.5134 107.793 78.25 107.157 78.25 106.494Z" fill="#E0E0E2"/>
<path d="M103.25 43.9935V43.0998C103.284 41.5073 102.732 39.9577 101.699 38.7457C100.665 37.5336 99.2224 36.7436 97.6445 36.5259C96.774 36.4358 95.8943 36.5295 95.0623 36.801C94.2303 37.0724 93.4646 37.5155 92.8147 38.1016C92.1648 38.6877 91.6452 39.4038 91.2896 40.2034C90.9339 41.003 90.7501 41.8684 90.75 42.7435V43.9935H88.25C87.587 43.9935 86.9511 44.2569 86.4822 44.7257C86.0134 45.1946 85.75 45.8305 85.75 46.4935V51.4935C85.75 52.1565 86.0134 52.7924 86.4822 53.2613C86.9511 53.7301 87.587 53.9935 88.25 53.9935H105.75C106.413 53.9935 107.049 53.7301 107.518 53.2613C107.987 52.7924 108.25 52.1565 108.25 51.4935V46.4935C108.25 45.8305 107.987 45.1946 107.518 44.7257C107.049 44.2569 106.413 43.9935 105.75 43.9935H103.25Z" fill="#AEAEB3"/>
<path d="M93.25 42.7435C93.2534 41.3065 93.7537 39.9148 94.666 38.8046C95.5783 37.6943 96.8465 36.9337 98.2556 36.6517C98.0544 36.5986 97.8504 36.5565 97.6445 36.5259C96.774 36.4358 95.8943 36.5295 95.0623 36.801C94.2304 37.0724 93.4646 37.5155 92.8147 38.1016C92.1648 38.6877 91.6452 39.4038 91.2896 40.2034C90.9339 41.003 90.7501 41.8684 90.75 42.7435V43.9935H93.25V42.7435ZM88.25 51.4935V46.4935C88.25 45.8305 88.5134 45.1946 88.9822 44.7257C89.4511 44.2569 90.087 43.9935 90.75 43.9935H88.25C87.587 43.9935 86.9511 44.2569 86.4822 44.7257C86.0134 45.1946 85.75 45.8305 85.75 46.4935V51.4935C85.75 52.1565 86.0134 52.7924 86.4822 53.2613C86.9511 53.7301 87.587 53.9935 88.25 53.9935H90.75C90.087 53.9935 89.4511 53.7301 88.9822 53.2613C88.5134 52.7924 88.25 52.1565 88.25 51.4935Z" fill="#888891"/>
<path d="M97 45.2437C97.6904 45.2437 98.25 44.684 98.25 43.9937C98.25 43.3033 97.6904 42.7437 97 42.7437C96.3096 42.7437 95.75 43.3033 95.75 43.9937C95.75 44.684 96.3096 45.2437 97 45.2437Z" fill="white"/>
<path d="M108.25 108.994V101.494C108.25 100.831 108.513 100.195 108.982 99.7259C109.451 99.257 110.087 98.9937 110.75 98.9937H118.25L108.25 108.994Z" fill="#AEAEB3"/>
<path d="M87 68.9937C89.0711 68.9937 90.75 67.3147 90.75 65.2437C90.75 63.1726 89.0711 61.4937 87 61.4937C84.9289 61.4937 83.25 63.1726 83.25 65.2437C83.25 67.3147 84.9289 68.9937 87 68.9937Z" fill="#56585D"/>
<path d="M87 98.9937C89.0711 98.9937 90.75 97.3147 90.75 95.2437C90.75 93.1726 89.0711 91.4937 87 91.4937C84.9289 91.4937 83.25 93.1726 83.25 95.2437C83.25 97.3147 84.9289 98.9937 87 98.9937Z" fill="#56585D"/>
<path d="M87 83.9937C89.0711 83.9937 90.75 82.3147 90.75 80.2437C90.75 78.1726 89.0711 76.4937 87 76.4937C84.9289 76.4937 83.25 78.1726 83.25 80.2437C83.25 82.3147 84.9289 83.9937 87 83.9937Z" fill="#56585D"/>
<path d="M110.75 65.2437H98.25C97.9185 65.2437 97.6005 65.112 97.3661 64.8775C97.1317 64.6431 97 64.3252 97 63.9937C97 63.6621 97.1317 63.3442 97.3661 63.1098C97.6005 62.8754 97.9185 62.7437 98.25 62.7437H110.75C111.082 62.7437 111.399 62.8754 111.634 63.1098C111.868 63.3442 112 63.6621 112 63.9937C112 64.3252 111.868 64.6431 111.634 64.8775C111.399 65.112 111.082 65.2437 110.75 65.2437ZM103.25 70.2437H98.25C97.9185 70.2437 97.6005 70.112 97.3661 69.8775C97.1317 69.6431 97 69.3252 97 68.9937C97 68.6621 97.1317 68.3442 97.3661 68.1098C97.6005 67.8754 97.9185 67.7437 98.25 67.7437H103.25C103.582 67.7437 103.899 67.8754 104.134 68.1098C104.368 68.3442 104.5 68.6621 104.5 68.9937C104.5 69.3252 104.368 69.6431 104.134 69.8775C103.899 70.112 103.582 70.2437 103.25 70.2437ZM110.75 80.2437H98.25C97.9185 80.2437 97.6005 80.112 97.3661 79.8775C97.1317 79.6431 97 79.3252 97 78.9937C97 78.6621 97.1317 78.3442 97.3661 78.1098C97.6005 77.8753 97.9185 77.7437 98.25 77.7437H110.75C111.082 77.7437 111.399 77.8753 111.634 78.1098C111.868 78.3442 112 78.6621 112 78.9937C112 79.3252 111.868 79.6431 111.634 79.8775C111.399 80.112 111.082 80.2437 110.75 80.2437ZM103.25 85.2437H98.25C97.9185 85.2437 97.6005 85.112 97.3661 84.8775C97.1317 84.6431 97 84.3252 97 83.9937C97 83.6621 97.1317 83.3442 97.3661 83.1098C97.6005 82.8753 97.9185 82.7437 98.25 82.7437H103.25C103.582 82.7437 103.899 82.8753 104.134 83.1098C104.368 83.3442 104.5 83.6621 104.5 83.9937C104.5 84.3252 104.368 84.6431 104.134 84.8775C103.899 85.112 103.582 85.2437 103.25 85.2437ZM110.75 95.2437H98.25C97.9185 95.2437 97.6005 95.112 97.3661 94.8775C97.1317 94.6431 97 94.3252 97 93.9937C97 93.6621 97.1317 93.3442 97.3661 93.1098C97.6005 92.8754 97.9185 92.7437 98.25 92.7437H110.75C111.082 92.7437 111.399 92.8754 111.634 93.1098C111.868 93.3442 112 93.6621 112 93.9937C112 94.3252 111.868 94.6431 111.634 94.8775C111.399 95.112 111.082 95.2437 110.75 95.2437ZM103.25 100.244H98.25C97.9185 100.244 97.6005 100.112 97.3661 99.8775C97.1317 99.6431 97 99.3252 97 98.9937C97 98.6621 97.1317 98.3442 97.3661 98.1098C97.6005 97.8754 97.9185 97.7437 98.25 97.7437H103.25C103.582 97.7437 103.899 97.8754 104.134 98.1098C104.368 98.3442 104.5 98.6621 104.5 98.9937C104.5 99.3252 104.368 99.6431 104.134 99.8775C103.899 100.112 103.582 100.244 103.25 100.244ZM144.5 61.4937V71.4937C144.5 71.8252 144.368 72.1431 144.134 72.3775C143.899 72.612 143.582 72.7437 143.25 72.7437C142.918 72.7437 142.601 72.612 142.366 72.3775C142.132 72.1431 142 71.8252 142 71.4937V61.4937C142.002 61.329 141.97 61.1658 141.908 61.0134C141.846 60.861 141.754 60.7225 141.638 60.6061C141.521 60.4897 141.383 60.3977 141.23 60.3355C141.078 60.2732 140.915 60.242 140.75 60.2437H138.25C137.918 60.2437 137.601 60.112 137.366 59.8775C137.132 59.6431 137 59.3252 137 58.9937C137 58.6621 137.132 58.3442 137.366 58.1098C137.601 57.8754 137.918 57.7437 138.25 57.7437H140.75C141.243 57.743 141.731 57.8395 142.186 58.0278C142.641 58.216 143.055 58.4922 143.403 58.8405C143.751 59.1889 144.028 59.6025 144.216 60.0578C144.404 60.5131 144.501 61.001 144.5 61.4937Z" fill="#56585D"/>
<path d="M138.25 51.4937V97.3187C138.256 98.4014 137.904 99.4559 137.25 100.319L135.75 102.319L134.5 103.994L133.25 102.319L131.75 100.319C131.096 99.4559 130.744 98.4014 130.75 97.3187V51.4937C130.752 50.8312 131.016 50.1965 131.484 49.7281C131.953 49.2597 132.588 48.9956 133.25 48.9937H135.75C136.412 48.9956 137.047 49.2597 137.516 49.7281C137.984 50.1965 138.248 50.8312 138.25 51.4937Z" fill="#5F57FF"/>
<path d="M133.25 97.3187V51.4937C133.252 50.8312 133.516 50.1965 133.984 49.7281C134.453 49.2597 135.088 48.9956 135.75 48.9937H133.25C132.588 48.9956 131.953 49.2597 131.484 49.7281C131.016 50.1965 130.752 50.8312 130.75 51.4937V97.3187C130.744 98.4014 131.096 99.4559 131.75 100.319L133.25 102.319L134.5 103.994L135.75 102.319L134.25 100.319C133.596 99.4559 133.244 98.4014 133.25 97.3187Z" fill="#1F26A4"/>
<path d="M140.75 57.7437H138.25V60.2437H140.75V57.7437Z" fill="#101828"/>
<path d="M138.25 93.9937V97.3187C138.256 98.4014 137.904 99.4559 137.25 100.319L134.5 103.994L131.75 100.319C131.096 99.4559 130.744 98.4014 130.75 97.3187V93.9937H138.25Z" fill="#56585D"/>
<path d="M133.25 102.319L131.75 100.319C131.096 99.4559 130.744 98.4014 130.75 97.3187V93.9937H133.25C133.25 94.7865 133.233 95.5825 133.24 96.3735C133.246 97.1562 133.316 97.935 133.335 98.7178C133.355 99.5259 133.343 100.334 133.297 101.142C133.275 101.534 133.263 101.926 133.25 102.319Z" fill="#101828"/>
<path d="M138.25 51.4937V57.7437H130.75V51.4937C130.752 50.8312 131.016 50.1965 131.484 49.7281C131.953 49.2597 132.588 48.9956 133.25 48.9937H135.75C136.412 48.9956 137.047 49.2597 137.516 49.7281C137.984 50.1965 138.248 50.8312 138.25 51.4937Z" fill="#56585D"/>
<path d="M135.75 48.9937H133.25C132.588 48.9956 131.953 49.2597 131.484 49.7281C131.016 50.1965 130.752 50.8312 130.75 51.4937V57.7437H133.25V51.4937C133.252 50.8312 133.516 50.1965 133.984 49.7281C134.453 49.2597 135.088 48.9956 135.75 48.9937Z" fill="#101828"/>
</svg>
