<svg width="189" height="152" viewBox="0 0 189 152" fill="none" xmlns="http://www.w3.org/2000/svg">
<path fill-rule="evenodd" clip-rule="evenodd" d="M47.628 101.704H116.424C116.813 101.704 117.193 101.662 117.558 101.582C117.923 101.662 118.303 101.704 118.692 101.704H158.004C160.927 101.704 163.296 99.3349 163.296 96.4122C163.296 93.4895 160.927 91.1202 158.004 91.1202H153.468C150.545 91.1202 148.176 88.7509 148.176 85.8282C148.176 82.9055 150.545 80.5362 153.468 80.5362H167.832C170.755 80.5362 173.124 78.1669 173.124 75.2442C173.124 72.3215 170.755 69.9522 167.832 69.9522H151.2C154.123 69.9522 156.492 67.5829 156.492 64.6602C156.492 61.7375 154.123 59.3682 151.2 59.3682H102.816C105.739 59.3682 108.108 56.9989 108.108 54.0762C108.108 51.1535 105.739 48.7842 102.816 48.7842H59.724C56.8013 48.7842 54.432 51.1535 54.432 54.0762C54.432 56.9989 56.8013 59.3682 59.724 59.3682H29.484C26.5613 59.3682 24.192 61.7375 24.192 64.6602C24.192 67.5829 26.5613 69.9522 29.484 69.9522H48.384C51.3067 69.9522 53.676 72.3215 53.676 75.2442C53.676 78.1669 51.3067 80.5362 48.384 80.5362H18.144C15.2213 80.5362 12.852 82.9055 12.852 85.8282C12.852 88.7509 15.2213 91.1202 18.144 91.1202H47.628C44.7053 91.1202 42.336 93.4895 42.336 96.4122C42.336 99.3349 44.7053 101.704 47.628 101.704ZM170.856 101.704C173.779 101.704 176.148 99.3349 176.148 96.4122C176.148 93.4895 173.779 91.1202 170.856 91.1202C167.933 91.1202 165.564 93.4895 165.564 96.4122C165.564 99.3349 167.933 101.704 170.856 101.704Z" fill="#ECEFF3"/>
<g clip-path="url(#clip0_874_5920)">
<path d="M119.713 94.9091C120.725 94.3084 121.881 93.9922 123.058 93.9941H132.433C134.173 93.9941 135.842 94.6856 137.073 95.9163C138.304 97.147 138.995 98.8162 138.995 100.557V111.494C138.995 112.157 138.732 112.793 138.263 113.262C137.794 113.731 137.158 113.994 136.495 113.994H118.995" fill="#6369D1"/>
<path d="M81.4951 113.994H63.9951C63.3321 113.994 62.6962 113.731 62.2274 113.262C61.7585 112.793 61.4951 112.157 61.4951 111.494V100.557C61.4951 98.8162 62.1865 97.147 63.4172 95.9163C64.6479 94.6856 66.3171 93.9941 68.0576 93.9941H77.4326C78.6127 93.9924 79.7712 94.3103 80.7851 94.9141" fill="#535CFB"/>
<path d="M105.035 85.2441C109.271 85.2441 113.334 86.927 116.329 89.9224C119.325 92.9178 121.008 96.9805 121.008 101.217V107.604C121.008 109.298 120.335 110.923 119.137 112.122C117.939 113.32 116.314 113.993 114.62 113.994H85.8701C84.1754 113.994 82.55 113.321 81.3517 112.123C80.1533 110.924 79.4801 109.299 79.4801 107.604V101.217C79.4801 99.1189 79.8933 97.0417 80.6962 95.1037C81.499 93.1656 82.6758 91.4047 84.1592 89.9215C85.6427 88.4383 87.4038 87.2618 89.3419 86.4593C91.2801 85.6567 93.3574 85.2438 95.4551 85.2441" fill="#5F57FF"/>
<path d="M105.038 76.3545V83.647C105.038 84.2764 104.914 84.8995 104.673 85.481C104.432 86.0625 104.079 86.5908 103.634 87.0358C103.189 87.4808 102.661 87.8338 102.079 88.0747C101.498 88.3155 100.874 88.4395 100.245 88.4395C99.6158 88.4395 98.9926 88.3155 98.4111 88.0747C97.8297 87.8338 97.3014 87.4808 96.8563 87.0358C96.4113 86.5908 96.0583 86.0625 95.8174 85.481C95.5766 84.8995 95.4526 84.2764 95.4526 83.647V76.3545H105.038Z" fill="#AAAFFF"/>
<path d="M100.245 78.8541C106.42 78.8541 111.425 73.8487 111.425 67.6741C111.425 61.4996 106.42 56.4941 100.245 56.4941C94.0705 56.4941 89.0651 61.4996 89.0651 67.6741C89.0651 73.8487 94.0705 78.8541 100.245 78.8541Z" fill="#56585D"/>
<path d="M111.058 66.4267L100.23 63.3517C99.1617 63.048 98.0226 63.1087 96.9926 63.5242L89.7951 66.4267L89.1501 66.8217C89.1276 67.1092 89.0651 67.3817 89.0651 67.6742C89.0651 69.1423 89.3542 70.5961 89.9161 71.9526C90.4779 73.309 91.3015 74.5415 92.3396 75.5796C93.3778 76.6178 94.6102 77.4413 95.9667 78.0031C97.3231 78.565 98.7769 78.8542 100.245 78.8542C101.713 78.8542 103.167 78.565 104.523 78.0031C105.88 77.4413 107.112 76.6178 108.151 75.5796C109.189 74.5415 110.012 73.309 110.574 71.9526C111.136 70.5961 111.425 69.1423 111.425 67.6742C111.406 67.2941 111.368 66.9152 111.31 66.5392L111.058 66.4267ZM131.495 86.4942V92.7442C131.495 93.7387 131.1 94.6925 130.397 95.3958C129.693 96.0991 128.74 96.4942 127.745 96.4942C126.751 96.4942 125.797 96.0991 125.093 95.3958C124.39 94.6925 123.995 93.7387 123.995 92.7442V86.4942H131.495Z" fill="#AAAFFF"/>
<path d="M127.745 88.9941C132.578 88.9941 136.495 85.0766 136.495 80.2441C136.495 75.4116 132.578 71.4941 127.745 71.4941C122.913 71.4941 118.995 75.4116 118.995 80.2441C118.995 85.0766 122.913 88.9941 127.745 88.9941Z" fill="#56585D"/>
<path d="M135.6 79.0945L128.1 76.962C127.032 76.6583 125.893 76.719 124.863 77.1345L119.72 79.2095L119.083 79.4595C119.06 79.7095 119.005 79.9745 119.005 80.242C119.005 82.5627 119.927 84.7882 121.568 86.4292C123.209 88.0701 125.434 88.992 127.755 88.992C130.076 88.992 132.301 88.0701 133.942 86.4292C135.583 84.7882 136.505 82.5627 136.505 80.242C136.505 79.952 136.448 79.6795 136.42 79.397L135.6 79.0945Z" fill="#AAAFFF"/>
<path d="M72.7451 88.9941C77.5776 88.9941 81.4951 85.0766 81.4951 80.2441C81.4951 75.4116 77.5776 71.4941 72.7451 71.4941C67.9126 71.4941 63.9951 75.4116 63.9951 80.2441C63.9951 85.0766 67.9126 88.9941 72.7451 88.9941Z" fill="#56585D"/>
<path d="M73.9951 77.9688C70.8543 79.3581 67.4518 80.0572 64.0176 80.0187C64.0176 80.0962 63.9951 80.1662 63.9951 80.2437C63.9951 82.5644 64.917 84.79 66.5579 86.4309C68.1989 88.0719 70.4245 88.9937 72.7451 88.9937C75.0658 88.9937 77.2914 88.0719 78.9323 86.4309C80.5732 84.79 81.4951 82.5644 81.4951 80.2437C81.4951 80.1012 81.4601 79.9688 81.4526 79.8263C78.8733 79.6738 76.3446 79.044 73.9951 77.9688Z" fill="#AAAFFF"/>
<path d="M64.7451 75.4938C64.128 75.0245 63.6267 74.4198 63.28 73.7264C62.9333 73.0329 62.7503 72.2691 62.7451 71.4938C62.7596 70.2874 63.2098 69.1269 64.0126 68.2264C64.8155 67.3258 65.9169 66.746 67.1137 66.5937C68.3105 66.4414 69.5221 66.727 70.5248 67.3979C71.5276 68.0687 72.254 69.0795 72.5701 70.2438" fill="#56585D"/>
<path d="M76.4951 86.4941V92.7441C76.4951 93.7387 76.1 94.6925 75.3968 95.3958C74.6935 96.0991 73.7397 96.4941 72.7451 96.4941C71.7506 96.4941 70.7967 96.0991 70.0935 95.3958C69.3902 94.6925 68.9951 93.7387 68.9951 92.7441V86.4941H76.4951Z" fill="#AAAFFF"/>
<path d="M132.745 92.7766V88.9941C132.739 88.9512 132.731 88.9086 132.72 88.8666C134.491 87.8565 135.909 86.3271 136.782 84.4852C137.656 82.6432 137.943 80.5774 137.605 78.5671C137.266 76.5568 136.319 74.6988 134.89 73.2443C133.462 71.7898 131.621 70.8088 129.618 70.4341C129.431 70.3153 129.216 70.2496 128.995 70.2441H128.345C128.277 70.2516 128.211 70.265 128.145 70.2841C128.01 70.2841 127.883 70.2441 127.745 70.2441C125.544 70.2372 123.403 70.9589 121.656 72.2966C119.908 73.6343 118.652 75.5127 118.084 77.639C117.516 79.7652 117.668 82.0196 118.515 84.0506C119.363 86.0817 120.859 87.775 122.77 88.8666C122.759 88.9086 122.751 88.9512 122.745 88.9941V92.7441V92.7866C121.912 92.8289 121.092 93.0053 120.315 93.3091C118.957 90.692 116.95 88.4673 114.486 86.8477C112.022 85.2282 109.184 84.268 106.243 84.0591C106.243 83.9216 106.283 83.7916 106.283 83.6516V78.8541C106.276 78.7355 106.253 78.6184 106.213 78.5066C108.633 77.1806 110.544 75.0866 111.643 72.5547C112.742 70.0227 112.968 67.197 112.283 64.523C111.599 61.8489 110.044 59.4787 107.864 57.7861C105.683 56.0935 103.002 55.1748 100.241 55.1748C97.4812 55.1748 94.7995 56.0935 92.6191 57.7861C90.4388 59.4787 88.8838 61.8489 88.1995 64.523C87.5151 67.197 87.7403 70.0227 88.8394 72.5547C89.9386 75.0866 91.8493 77.1806 94.2701 78.5066C94.23 78.6184 94.2064 78.7355 94.2001 78.8541V83.6466C94.2001 83.7866 94.2326 83.9166 94.2401 84.0541C91.299 84.263 88.4607 85.2232 85.9968 86.8427C83.5329 88.4623 81.5258 90.687 80.1676 93.3041C79.3931 93.0028 78.5751 92.8281 77.7451 92.7866V92.7441V88.9941C77.7391 88.9512 77.7308 88.9086 77.7201 88.8666C79.2416 87.9978 80.5073 86.7433 81.3895 85.2295C82.2717 83.7158 82.7393 81.9962 82.7451 80.2441C82.7451 80.1666 82.7226 80.0916 82.7226 80.0141C82.7226 79.9966 82.7376 79.9816 82.7376 79.9641C82.7543 79.7772 82.7278 79.5891 82.6601 79.4141C82.4664 77.11 81.4763 74.9453 79.8599 73.292C78.2435 71.6386 76.1017 70.5998 73.8026 70.3541C73.819 70.2147 73.8114 70.0735 73.7801 69.9366C73.5426 68.986 73.0845 68.1047 72.443 67.3641C71.8014 66.6236 70.9944 66.0446 70.0873 65.6741C69.1802 65.3035 68.1986 65.1519 67.222 65.2315C66.2454 65.3111 65.3013 65.6196 64.4662 66.1321C63.6311 66.6446 62.9284 67.3466 62.4152 68.1812C61.902 69.0159 61.5926 69.9597 61.5122 70.9363C61.4317 71.9128 61.5824 72.8945 61.9521 73.8019C62.3219 74.7093 62.9001 75.5169 63.6401 76.1591C63.1185 77.3256 62.8273 78.582 62.7826 79.8591C62.7641 79.9262 62.7516 79.9948 62.7451 80.0641V80.1041C62.7451 80.1516 62.7301 80.1966 62.7301 80.2441C62.736 81.9962 63.2036 83.7158 64.0858 85.2295C64.968 86.7433 66.2336 87.9978 67.7551 88.8666C67.7495 88.9089 67.7462 88.9515 67.7451 88.9941V92.7766C65.7327 92.8553 63.8287 93.7088 62.4309 95.1587C61.0332 96.6086 60.25 98.5427 60.2451 100.557V111.494C60.2451 112.489 60.6402 113.442 61.3435 114.146C62.0467 114.849 63.0006 115.244 63.9951 115.244H81.4951C81.7374 115.243 81.9741 115.172 82.1765 115.038C82.3789 114.905 82.5382 114.716 82.6351 114.494C83.6445 114.981 84.7495 115.237 85.8701 115.244H114.62C115.741 115.237 116.846 114.981 117.855 114.494C117.952 114.716 118.111 114.905 118.314 115.038C118.516 115.172 118.753 115.243 118.995 115.244H136.495C137.49 115.244 138.444 114.849 139.147 114.146C139.85 113.442 140.245 112.489 140.245 111.494V100.557C140.24 98.5427 139.457 96.6086 138.059 95.1587C136.662 93.7088 134.757 92.8553 132.745 92.7766ZM127.745 72.7441C129.257 72.7483 130.732 73.209 131.977 74.066C133.222 74.923 134.179 76.1362 134.723 77.5466L128.433 75.7591C127.098 75.3822 125.675 75.4578 124.388 75.9741L120.808 77.4191C121.369 76.0389 122.328 74.8571 123.564 74.0245C124.8 73.1919 126.255 72.7461 127.745 72.7441ZM120.245 80.3391L125.313 78.2966C126.087 77.9859 126.942 77.9394 127.745 78.1641L135.245 80.2916C135.251 82.2807 134.467 84.1909 133.065 85.6019C131.663 87.0128 129.758 87.809 127.769 87.8153C125.78 87.8216 123.87 87.0375 122.459 85.6354C121.048 84.2334 120.251 82.3282 120.245 80.3391ZM130.245 89.8891V92.7441C130.245 93.4071 129.982 94.043 129.513 94.5119C129.044 94.9807 128.408 95.2441 127.745 95.2441C127.082 95.2441 126.446 94.9807 125.977 94.5119C125.509 94.043 125.245 93.4071 125.245 92.7441V89.8891C126.878 90.3626 128.612 90.3626 130.245 89.8891ZM100.245 57.7441C102.359 57.7522 104.414 58.4359 106.112 59.6953C107.809 60.9546 109.059 62.7237 109.68 64.7441L100.57 62.1491C99.2348 61.7739 97.8131 61.8495 96.5251 62.3641L90.8326 64.6591C91.467 62.6582 92.7203 60.9104 94.4119 59.6676C96.1035 58.4249 98.1461 57.7513 100.245 57.7441ZM90.3151 67.6741C90.3151 67.6341 90.3151 67.5991 90.3151 67.5591L97.4501 64.6816C98.2231 64.3731 99.0761 64.3274 99.8776 64.5516L110.143 67.4666C110.143 67.5366 110.163 67.6016 110.163 67.6716C110.163 70.3052 109.116 72.8309 107.254 74.6932C105.392 76.5554 102.866 77.6016 100.233 77.6016C97.599 77.6016 95.0733 76.5554 93.211 74.6932C91.3488 72.8309 90.3026 70.3052 90.3026 67.6716L90.3151 67.6741ZM103.788 79.5291V83.6491C103.763 84.572 103.379 85.4489 102.718 86.093C102.056 86.7371 101.17 87.0975 100.246 87.0975C99.3231 87.0975 98.4364 86.7371 97.7749 86.093C97.1135 85.4489 96.7296 84.572 96.7051 83.6491V79.5291C99.0034 80.2976 101.489 80.2976 103.788 79.5291ZM72.7451 72.7441C74.405 72.7501 76.016 73.3065 77.3257 74.3262C78.6354 75.3459 79.5699 76.7714 79.9826 78.3791C78.1345 78.1927 76.3314 77.6939 74.6501 76.9041C74.4537 76.7839 74.2279 76.7203 73.9976 76.7203C73.7673 76.7203 73.5415 76.7839 73.3451 76.9041C70.8449 78.0181 68.149 78.6265 65.4126 78.6941C65.7679 77.0122 66.6901 75.5034 68.0249 74.4203C69.3597 73.3371 71.0261 72.7454 72.7451 72.7441ZM63.9951 71.4941C63.9951 70.4995 64.3902 69.5457 65.0935 68.8424C65.7967 68.1392 66.7506 67.7441 67.7451 67.7441C68.5413 67.7479 69.3151 68.0072 69.9529 68.4838C70.5906 68.9604 71.0585 69.6291 71.2876 70.3916C68.8094 70.7603 66.5619 72.0514 64.9951 74.0066C64.3597 73.3234 64.0029 72.4271 63.9951 71.4941ZM65.3426 81.1991C68.3102 81.1005 71.238 80.4863 73.9951 79.3841C75.9737 80.1804 78.0523 80.7011 80.1726 80.9316C80.0121 82.7674 79.1777 84.4788 77.8303 85.736C76.483 86.9932 74.718 87.7072 72.8755 87.7404C71.033 87.7736 69.2434 87.1237 67.8516 85.9159C66.4598 84.7081 65.5643 83.0279 65.3376 81.1991H65.3426ZM75.2451 89.8891V92.7441C75.2451 93.4071 74.9817 94.043 74.5129 94.5119C74.044 94.9807 73.4082 95.2441 72.7451 95.2441C72.0821 95.2441 71.4462 94.9807 70.9774 94.5119C70.5085 94.043 70.2451 93.4071 70.2451 92.7441V89.8891C71.0598 90.1138 71.9 90.2331 72.7451 90.2441C73.5902 90.2331 74.4304 90.1138 75.2451 89.8891ZM63.9951 112.744C63.6636 112.744 63.3457 112.612 63.1112 112.378C62.8768 112.144 62.7451 111.826 62.7451 111.494V100.557C62.7464 99.148 63.3066 97.7976 64.3026 96.8016C65.2986 95.8056 66.6491 95.2454 68.0576 95.2441H68.4401C68.8766 96.0094 69.5092 96.6445 70.2728 97.0839C71.0364 97.5233 71.9034 97.7512 72.7844 97.7441C73.6654 97.737 74.5285 97.4951 75.2849 97.0433C76.0413 96.5916 76.6636 95.9464 77.0876 95.1741C77.1986 95.214 77.3148 95.2376 77.4326 95.2441C78.0352 95.2561 78.6313 95.3711 79.1951 95.5841C78.56 97.3942 78.2338 99.2983 78.2301 101.217V107.604C78.2323 109.51 78.9516 111.345 80.2451 112.744H63.9951ZM119.76 107.604C119.759 108.967 119.217 110.274 118.253 111.237C117.29 112.201 115.983 112.743 114.62 112.744H85.8701C84.5073 112.743 83.2007 112.201 82.237 111.237C81.2734 110.274 80.7314 108.967 80.7301 107.604V101.217C80.7364 97.4003 82.2235 93.7353 84.8784 90.9937C87.5332 88.2522 91.1485 86.648 94.9626 86.5191C95.4728 87.477 96.2339 88.2782 97.1644 88.8369C98.0949 89.3955 99.1598 89.6907 100.245 89.6907C101.33 89.6907 102.395 89.3955 103.326 88.8369C104.256 88.2782 105.017 87.477 105.528 86.5191C109.342 86.648 112.957 88.2522 115.612 90.9937C118.267 93.7353 119.754 97.4003 119.76 101.217V107.604ZM137.745 111.494C137.745 111.826 137.613 112.144 137.379 112.378C137.145 112.612 136.827 112.744 136.495 112.744H120.245C121.542 111.346 122.265 109.511 122.27 107.604V101.217C122.266 99.2983 121.94 97.3942 121.305 95.5841C121.866 95.3722 122.458 95.2572 123.058 95.2441H123.44C123.877 96.0094 124.509 96.6445 125.273 97.0839C126.036 97.5233 126.903 97.7512 127.784 97.7441C128.665 97.737 129.529 97.4951 130.285 97.0433C131.041 96.5916 131.664 95.9464 132.088 95.1741C132.199 95.214 132.315 95.2376 132.433 95.2441C133.841 95.2454 135.192 95.8056 136.188 96.8016C137.184 97.7976 137.744 99.148 137.745 100.557V111.494Z" fill="#101828"/>
</g>
<defs>
<clipPath id="clip0_874_5920">
<rect width="80" height="80" fill="white" transform="translate(60.2451 35.2441)"/>
</clipPath>
</defs>
</svg>
